<svg width="49" height="32" viewBox="0 0 49 32" fill="none" xmlns="http://www.w3.org/2000/svg">
<path d="M4.70001 18.9L1.40002 23.5L4.70001 26L8 21.4C9.7 22.4 11.5 23.3 13.3 24L11.6 29.4L15.4 30.7L17.1 25.3C19.1 25.8 21.1 26.1 23.1 26.3V32H27.1V26.3C29.1 26.2 31.1 25.9 33.1 25.3L34.8 30.7L38.6 29.4L36.7 23.9C38.6 23.2 40.4 22.2 42 21.1L45.3 25.9L48.6 23.5L45.3 18.9C46.6 17.8 47.8 16.6 48.9 15.3L45.9 12.6C36 24.2 18.6 25.6 7 15.7C5.9 14.8 4.90002 13.7 3.90002 12.6L0.900024 15.3C2.20002 16.6 3.40001 17.8 4.70001 18.9ZM39.1 7.8L41.1 4.3C31.2 -1.4 19 -1.4 9.09998 4.3L11.1 7.8C19.8 2.8 30.4 2.8 39.1 7.8Z" fill="#676868"/>
</svg>
