<svg width="14" height="14" viewBox="0 0 14 14" fill="none" xmlns="http://www.w3.org/2000/svg">
<path d="M0.136719 4.42969V12.168C0.136719 12.5508 0.264323 12.8698 0.519531 13.125C0.792969 13.3984 1.12109 13.5352 1.50391 13.5352H12.3867C12.7513 13.5352 13.0703 13.4076 13.3438 13.1523C13.6172 12.8789 13.7539 12.5508 13.7539 12.168V4.42969C13.7539 4.04688 13.6172 3.71875 13.3438 3.44531C13.0885 3.1901 12.7695 3.0625 12.3867 3.0625H8.55859V4.10156H12.3867C12.4779 4.10156 12.5599 4.12891 12.6328 4.18359C12.6875 4.27474 12.7148 4.35677 12.7148 4.42969V12.168C12.7148 12.3867 12.6055 12.4961 12.3867 12.4961H1.50391C1.41276 12.4961 1.33073 12.4688 1.25781 12.4141C1.22135 12.3594 1.20312 12.2591 1.20312 12.1133V4.42969C1.20312 4.21094 1.3125 4.10156 1.53125 4.10156H5.35938V3.0625H1.53125C1.14844 3.0625 0.820312 3.19922 0.546875 3.47266C0.273438 3.72786 0.136719 4.04688 0.136719 4.42969ZM4.375 7.49219L6.58984 9.70703C6.68099 9.79818 6.79948 9.84375 6.94531 9.84375C7.05469 9.84375 7.17318 9.79818 7.30078 9.70703L9.51562 7.49219L8.80469 6.78125L7.4375 8.14844V0.546875H6.45312V0.574219V0.601562V8.14844L5.08594 6.78125L4.375 7.49219Z" fill="#1390E5"/>
</svg>
