<svg width="16" height="24" viewBox="0 0 16 24" fill="none" xmlns="http://www.w3.org/2000/svg">
<path fill-rule="evenodd" clip-rule="evenodd" d="M13.1007 6.13333C13.1007 3.36 10.7919 1.06667 8 1.06667C5.15436 1.06667 2.89933 3.36 2.89933 6.13333V9.06667H13.1007V6.13333ZM14.1745 9.06667V6.13333C14.1745 2.72 11.3825 0 8 0C4.56376 0 1.8255 2.72 1.8255 6.13333V9.06667H0V16.0533C0 20.4267 3.59732 24 8 24C12.4027 24 16 20.4267 16 16.0533V9.06667H14.1745ZM1.8255 10.1333L1.07383 10.1333V16.0533C1.07383 19.84 4.18792 22.9333 8 22.9333C11.8121 22.9333 14.9262 19.84 14.9262 16.0533V10.1333L14.1745 10.1333H1.8255ZM8.80538 16.287C9.25706 16.0036 9.55705 15.5033 9.55705 14.9333C9.55705 14.0497 8.8359 13.3333 7.94631 13.3333C7.05672 13.3333 6.33557 14.0497 6.33557 14.9333C6.33557 15.5473 6.68373 16.0805 7.19464 16.3488V19.7333H8.80538V16.287Z" fill="#999999"/>
</svg>
