<svg width="49" height="30" viewBox="0 0 49 30" fill="none" xmlns="http://www.w3.org/2000/svg">
<path d="M44.6 13.4L48.1 9.4L45.1 6.7L41.5 11C39.9 9.9 38.1 9.1 36.3 8.3L38.5 2.7L34.8 1.2L32.5 7C30.6 6.5 28.6 6.2 26.6 6.1V0H22.6V6.1C20.6 6.2 18.7 6.5 16.7 7L14.4 1.2L10.7 2.7L12.9 8.3C11.1 9 9.40001 9.9 7.70001 11L4.10001 6.7L1.10001 9.3L4.60001 13.3C3.20001 14.4 1.90001 15.7 0.700012 17L3.60001 20C8.80001 13.7 16.5 10 24.7 10C32.9 10 40.6 13.7 45.7 20L48.7 17C47.4 15.7 46 14.5 44.6 13.4Z" fill="#1390E5"/>
<path d="M24.6 14C20.2 14 16.6 17.6 16.6 22C16.6 26.4 20.2 30 24.6 30C29 30 32.6 26.4 32.6 22C32.6 17.6 29 14 24.6 14ZM24.6 26C22.4 26 20.6 24.2 20.6 22C20.6 19.8 22.4 18 24.6 18C26.8 18 28.6 19.8 28.6 22C28.6 24.2 26.8 26 24.6 26Z" fill="#1390E5"/>
</svg>
